<svg width="773" height="864" viewBox="0 0 773 864" fill="none" xmlns="http://www.w3.org/2000/svg">
<path d="M682.431 388.16C714.671 327.793 748.064 238.359 654.559 167.012C561.047 95.6582 468.699 149.361 425.256 188.19C400.192 210.592 377.375 236.582 357.392 259.341C345.744 272.609 335.058 284.779 325.455 294.499C260.73 360.01 195.67 377.441 104.937 401.751C69.5675 411.228 30.2983 421.749 -14.3724 436.571C-135.936 476.909 -153.427 514.87 -139.35 550.15C-134.841 548.314 -130.116 546.502 -125.182 544.716C-43.0877 514.998 96.8257 492.581 259.181 492.581C466.489 492.581 682.093 565.288 762.761 623.528C750.463 599.528 718.553 573.799 689.345 550.246C665.563 531.072 643.574 513.341 635.413 499.162C619.077 470.779 629.964 457.945 648.407 436.203C658.553 424.243 670.987 409.586 682.431 388.16Z" fill="#9179C9"/>
<path d="M683.63 716.552L682.528 716.58L677.694 716.678C516.447 719.702 190.261 699.717 -16.6643 673.785C-16.6685 673.784 -16.6713 673.783 -16.6741 673.781H-16.7007C-16.6881 673.783 -16.6769 673.784 -16.6643 673.785C66.3895 706.308 184.261 728.257 305.234 728.591C405.317 728.87 474.062 730.433 523.246 731.553C626.516 733.902 643.545 734.289 683.328 716.686L683.63 716.552Z" fill="#9179C9"/>
<path fill-rule="evenodd" clip-rule="evenodd" d="M268.786 519.833L272.743 520.08L266.886 611.228L264.066 614.675L259.727 611.785L268.786 519.833Z" fill="white"/>
<path d="M567.061 403.528C627.555 403.528 676.596 355.93 676.596 297.216C676.596 238.502 627.555 190.905 567.061 190.905C506.566 190.905 457.526 238.502 457.526 297.216C457.526 355.93 506.566 403.528 567.061 403.528Z" fill="white"/>
<path fill-rule="evenodd" clip-rule="evenodd" d="M280.323 400.812C280.323 400.812 280.079 394.713 287.569 394.353C295.052 393.993 356.185 400.812 356.185 400.812C356.185 400.812 369.339 402.651 367.167 416.998C364.989 431.344 357.048 464.407 357.048 464.407C357.048 464.407 357.981 470.062 348.429 468.561C338.877 467.061 310.518 459.904 280.323 464.446C280.323 464.446 275.336 465.014 275.48 485.595L272.746 485.106C272.746 485.106 276.737 406.586 280.323 400.812Z" fill="white"/>
<path fill-rule="evenodd" clip-rule="evenodd" d="M325.187 352.266C325.778 351.654 325.187 352.266 325.187 352.266C322.789 354.763 320.75 356.983 319.435 358.586C313.162 366.243 304.757 373.5 301.362 379.05C301.362 379.05 286.338 385.694 280.319 378.785C280.319 378.785 294.123 361.216 305.07 353.368C305.07 353.368 315.705 348.287 325.187 352.266ZM336.852 340.551L325.743 337.419C325.743 337.419 337.009 330.606 343.253 328.025L348.425 329.386C348.425 329.386 343.08 334.458 336.852 340.551C336.852 340.551 336.695 340.714 336.852 340.551Z" fill="white"/>
<path fill-rule="evenodd" clip-rule="evenodd" d="M152.397 632.805C152.397 632.805 132.852 628.601 128.201 606.911C128.201 606.911 131.763 600.655 145.73 586.166C145.73 586.166 163.385 575.164 160.477 557.725C160.477 557.725 141.217 552.879 147.659 524.478L151.765 517.197C151.765 517.197 147.218 485.665 151.07 466.994C151.07 466.994 147.508 443.179 162.347 441.47C162.347 441.47 168.592 440.582 169.282 438.21C169.282 438.21 160.141 413.637 186.901 401.724C213.656 389.816 234.474 410.331 233.634 432.194C233.634 432.194 231.317 447.16 221.876 453.856C221.876 453.856 242.154 466.167 253.444 482.352C253.444 482.352 266.065 495.059 271.614 492.916C271.614 492.916 288.534 492.556 286.228 498.296C283.929 504.03 282.308 512.25 257.533 513.498C257.533 513.498 233.582 510.519 227.338 510.35L222.947 508.86C222.947 508.86 228.351 519.985 222.472 530.594C216.594 541.197 212.319 544.868 212.95 546.926L225.97 606.023C225.97 606.023 225.032 616.002 236.542 614.253C248.051 612.5 244.998 619.319 242.705 620.955C240.411 622.596 221.446 638.337 205.53 618.262C189.613 598.181 187.272 594.053 187.272 594.053L155.443 615.681C155.443 615.681 152.969 618.014 154.771 623.445C154.771 623.445 158.213 631.485 152.397 632.805Z" fill="white"/>
<path fill-rule="evenodd" clip-rule="evenodd" d="M443.567 305.826C437.893 182.128 569.077 188.148 569.357 188.189C725.986 210.676 688.706 403.526 567.324 409.629C567.24 409.633 448.463 412.565 443.567 305.826ZM448.067 305.68C444.649 231.174 495.239 206.704 531.981 198.745C532.105 198.871 532.266 199.007 532.455 199.152C534.98 201.103 537.483 202.899 540.877 203.532C542.869 203.904 544.795 204.581 546.724 205.257H546.725C548.212 205.78 549.701 206.302 551.223 206.686C553.235 207.193 555.329 207.42 557.416 207.647C558.02 207.712 558.622 207.777 559.221 207.849C559.775 207.916 560.339 207.919 560.902 207.923C561.611 207.927 562.32 207.931 563.004 208.061C563.91 208.234 564.8 208.481 565.692 208.727C566.795 209.034 567.896 209.34 569.022 209.501C569.821 209.617 570.649 209.577 571.475 209.538C572.463 209.49 573.447 209.443 574.368 209.663C576.789 210.239 579.139 211.125 581.479 212.006C581.811 212.131 582.141 212.255 582.471 212.379L582.999 212.577C585.479 213.505 587.974 214.437 590.332 215.612C592.597 216.741 594.711 216.519 595.916 214.547C597.752 211.546 599.681 208.747 603.77 208.382C604.562 208.311 605.332 207.984 606.1 207.658C606.451 207.508 606.801 207.359 607.153 207.235L606.738 207.076C605.724 206.689 604.71 206.303 603.701 205.905C603.681 205.899 603.686 205.85 603.69 205.795C603.694 205.734 603.7 205.666 603.672 205.647C601.233 203.918 597.19 205.333 595.823 207.879C594.984 209.447 593.361 211.001 591.705 211.683C590.012 212.38 588.585 211.516 587.077 210.602H587.075C586.454 210.225 585.817 209.84 585.142 209.552C582.252 208.713 579.645 207.885 577.05 207.034C576.236 206.767 575.425 206.481 574.616 206.196H574.613C572.886 205.587 571.16 204.979 569.387 204.552C568.498 204.338 567.556 204.354 566.61 204.369C565.872 204.381 565.132 204.393 564.411 204.297C562.992 204.105 561.579 203.851 560.167 203.596H560.166C558.601 203.315 557.034 203.032 555.457 202.836C554.411 202.706 553.34 202.677 552.272 202.649C550.537 202.603 548.809 202.557 547.214 202.077C546.63 201.9 546.063 201.698 545.501 201.497C544.024 200.968 542.564 200.445 540.837 200.421C539.307 200.401 537.524 199.379 536.342 198.302C536.19 198.163 536.043 198.045 535.9 197.946C554.504 194.39 568.669 195.002 568.757 195.014C710.374 216.293 681.222 398.39 567.324 404.116C567.245 404.12 452.661 405.836 448.067 305.68ZM128.581 613.943L128.7 614.282C129.436 616.372 130.692 618.292 131.983 620.267C132.487 621.038 132.997 621.818 133.484 622.619C133.798 622.991 134.083 623.357 134.357 623.71V623.711H134.359V623.713C134.854 624.347 135.315 624.939 135.857 625.453C139.308 628.719 143.079 631.581 147.564 633.402C147.865 633.525 148.251 633.453 148.636 633.381C149.022 633.308 149.409 633.236 149.705 633.362C153.731 635.089 157.726 632.873 157.565 628.568C157.509 627.087 157.052 625.625 156.593 624.156C156.273 623.131 155.952 622.101 155.765 621.062C155.573 619.982 155.769 618.599 156.343 617.678C157.845 615.26 160.231 613.787 162.747 612.354C163.934 611.677 164.943 610.718 165.956 609.755V609.754H165.958L165.959 609.752C166.748 609.001 167.539 608.249 168.421 607.626C169.818 606.639 171.303 605.772 172.79 604.905C173.877 604.271 174.965 603.636 176.019 602.954C176.744 602.483 177.424 601.959 178.104 601.434C179.707 600.201 181.305 598.968 183.478 598.44C186.227 597.777 189.098 598.619 190.734 601.104C191.435 602.169 192.268 603.15 193.101 604.132C193.734 604.877 194.366 605.622 194.943 606.406C196.34 608.3 197.656 610.262 198.885 612.264C199.379 613.066 199.808 613.916 200.238 614.764V614.765C200.983 616.237 201.726 617.704 202.791 618.909C204.244 620.549 205.915 622.006 207.589 623.465C208.726 624.456 209.864 625.447 210.936 626.499C213.954 629.455 217.842 630.231 221.778 630.557C223.8 630.72 225.845 630.334 227.841 629.959C229.095 629.723 230.328 629.49 231.523 629.399C233.106 629.28 234.366 628.674 235.603 628.079C236.757 627.525 237.889 626.98 239.243 626.847C240.511 626.723 241.682 625.68 242.854 624.638C243.378 624.172 243.901 623.706 244.433 623.323C247.791 620.899 247.901 616.401 244.542 614.113C244.199 613.882 243.692 613.863 243.189 613.846C242.666 613.828 242.147 613.809 241.824 613.551C239.24 611.5 236.473 612.044 233.644 612.641C231.144 613.164 228.101 610.477 228.136 608.008C228.151 607.003 227.874 605.988 227.601 604.987C227.531 604.727 227.461 604.47 227.396 604.214C227.237 603.581 227.037 602.953 226.837 602.328V602.327C226.479 601.2 226.12 600.08 226.004 598.934C225.902 597.93 225.65 596.961 225.398 595.992C225.068 594.72 224.736 593.449 224.743 592.093C224.747 591.279 224.423 590.474 224.095 589.661C223.854 589.062 223.612 588.46 223.499 587.847C223.334 586.963 223.266 586.064 223.201 585.163V585.162C223.132 584.226 223.062 583.29 222.883 582.373C222.639 581.134 222.319 579.911 222 578.688V578.687L221.998 578.686C221.637 577.3 221.275 575.916 221.025 574.514C220.841 573.473 220.839 572.404 220.839 571.333C220.838 570.638 220.838 569.941 220.787 569.251C220.757 568.844 220.755 568.406 220.754 567.961C220.75 566.711 220.745 565.424 220.099 564.714C219.304 563.846 219.337 562.942 219.372 562.018C219.4 561.25 219.43 560.469 218.982 559.688C218.124 558.191 218.073 556.247 218.024 554.318V554.316C218.006 553.595 217.987 552.876 217.926 552.183C217.884 551.705 217.943 551.167 218.002 550.639V550.637V550.636V550.635V550.633V550.632C218.103 549.729 218.199 548.851 217.785 548.337C216.268 546.461 217.141 544.599 217.788 543.221C217.826 543.141 217.862 543.064 217.897 542.987C218.954 540.708 220.211 538.515 221.468 536.323V536.321C222.814 533.972 224.159 531.623 225.26 529.17C226.283 526.885 226.609 524.278 226.928 521.718C226.992 521.205 227.057 520.694 227.125 520.187C227.25 519.274 227.215 518.337 227.181 517.401V517.4V517.398V517.397V517.396V517.394C227.142 516.354 227.103 515.314 227.286 514.31C227.415 513.6 228.423 512.987 229.277 512.468C229.406 512.391 229.531 512.315 229.649 512.241C229.736 512.187 229.93 512.353 230.166 512.552C230.439 512.785 230.765 513.062 231.038 513.096C231.813 513.192 232.661 513.184 233.504 513.176C235.143 513.161 236.762 513.146 237.79 513.904C239.633 515.261 241.568 515.189 243.414 515.121C244.177 515.093 244.926 515.066 245.645 515.139C249.685 515.556 253.797 515.31 257.909 515.064L257.911 515.063H257.912H257.914H257.915H257.916H257.918H257.919H257.921H257.922H257.923H257.925C259.536 514.966 261.147 514.87 262.754 514.814C263.816 514.776 264.888 514.736 265.935 514.571C271.148 513.756 276.271 512.574 280.395 509.155C281.668 508.098 282.738 506.809 283.806 505.521C284.252 504.981 284.7 504.441 285.162 503.919C286.391 502.531 286.853 500.948 287.376 499.138C288.346 495.79 286.191 491.589 282.458 491.858C280.924 491.969 279.886 491.502 278.653 490.929C277.917 490.585 276.925 490.58 276.075 490.672C275.487 490.736 274.895 490.846 274.304 490.954C271.908 491.397 269.537 491.836 267.614 489.225C267.212 488.68 266.42 488.384 265.657 488.102C265.434 488.017 265.213 487.936 265.005 487.848C264.575 487.667 264.109 487.535 263.643 487.403C262.811 487.167 261.987 486.933 261.399 486.431C258.982 484.368 256.732 482.105 254.554 479.796C253.442 478.616 252.388 477.384 251.334 476.153V476.152H251.332V476.151H251.331V476.149H251.329V476.148H251.328V476.147C250.239 474.874 249.149 473.601 247.995 472.385C245.719 469.987 243.334 467.675 240.864 465.467C238.835 463.652 236.673 461.963 234.454 460.37C232.842 459.211 231.106 458.209 229.376 457.21L228.882 456.925C226.591 455.597 226.402 453.263 226.351 451.17C226.34 450.68 227.239 450.17 228.139 449.658C228.553 449.423 228.967 449.188 229.294 448.953C229.369 448.899 229.452 448.833 229.497 448.755C229.877 448.082 230.261 447.41 230.646 446.738C231.777 444.756 232.909 442.776 233.981 440.765C234.26 440.243 234.369 439.635 234.478 439.029V439.027C234.519 438.803 234.559 438.581 234.607 438.362C234.778 437.592 234.976 436.823 235.175 436.052C235.697 434.035 236.218 432.016 236.24 429.993C236.252 428.997 236.042 427.651 235.84 426.481C235.458 424.264 235.056 422.038 234.429 419.878C234.205 419.103 233.817 418.375 233.428 417.644C233.133 417.089 232.836 416.532 232.611 415.953C232.334 415.242 232.135 414.477 231.938 413.717C231.567 412.294 231.2 410.883 230.336 409.854C229.551 408.921 228.895 407.876 228.237 406.829H228.235V406.828C226.704 404.392 225.166 401.944 221.986 400.845C220.703 400.402 219.488 399.718 218.279 399.039C216.664 398.133 215.061 397.232 213.33 396.92C208.86 396.114 204.184 396.188 199.601 396.262C195.991 396.321 192.242 396.472 188.837 397.482C186.384 398.21 183.906 399.387 181.556 400.915C181.128 401.194 180.692 401.47 180.254 401.747C178.012 403.168 175.719 404.62 174.252 406.531C173.687 407.268 173.035 407.973 172.377 408.683C170.389 410.831 168.348 413.036 168.484 416.339C166.25 417.574 166.186 419.697 166.127 421.664C166.109 422.28 166.091 422.88 166.008 423.434L165.998 423.498C165.65 425.797 165.276 428.26 165.819 430.974C166.485 434.301 167.237 437.286 169.026 440.143C170.084 441.833 170.957 443.627 168.024 444.568C167.613 444.699 167.108 445.043 166.971 445.404C166.272 447.249 165.329 448.922 163.316 449.579C161.47 450.182 161.607 451.439 161.743 452.671C161.778 452.986 161.813 453.3 161.813 453.602C161.814 453.762 163.36 454.28 163.736 454.017C164.881 453.221 165.987 452.371 167.094 451.52V451.519H167.095L167.097 451.518L167.098 451.516C168.617 450.349 170.134 449.184 171.747 448.159C172.721 447.54 174.438 447.454 175.596 447.806C176.85 448.188 178.029 448.795 179.21 449.405C179.93 449.776 180.649 450.148 181.387 450.469C183.289 451.296 185.209 452.082 187.13 452.868C188.135 453.278 189.138 453.689 190.141 454.106C191.448 454.651 191.686 455.362 190.468 456.282C189.842 456.754 189.214 457.224 188.587 457.694L188.574 457.705H188.573H188.571V457.706H188.57V457.707H188.569L188.567 457.709L188.566 457.71H188.564V457.711H188.563V457.713H188.562C186.928 458.937 185.293 460.161 183.685 461.419C179.22 464.912 176.973 469.76 176.359 475.014C175.933 478.642 176.349 482.636 177.543 486.091C178.488 488.82 180.418 491.272 182.299 493.662L182.304 493.667C182.639 494.094 182.974 494.519 183.301 494.943C185.744 498.113 189.221 499.99 192.681 501.858C193.669 502.392 194.657 502.925 195.618 503.487C197.843 504.788 200.423 505.589 202.928 506.343C204.162 506.715 205.438 506.942 206.715 507.17H206.716C207.736 507.352 208.758 507.534 209.759 507.791C210.673 508.024 211.562 508.35 212.451 508.678C213.279 508.982 214.107 509.286 214.956 509.516C216.486 509.929 218.037 510.267 219.588 510.606H219.591L219.592 510.607H219.595H219.596L219.599 510.608H219.6H219.603C220.37 510.777 221.137 510.944 221.903 511.12C221.913 511.122 221.918 511.137 221.921 511.159C221.924 511.175 221.925 511.194 221.927 511.214V511.216C221.931 511.274 221.937 511.341 221.966 511.362C222.998 512.157 224.45 518.135 224.052 519.289C223.327 521.387 222.711 523.522 222.096 525.654V525.657L221.97 526.09C221.837 526.551 221.753 527.036 221.669 527.519V527.521C221.518 528.391 221.368 529.258 220.934 529.967L220.523 530.644C218.626 533.759 216.711 536.904 214.354 539.677C212.011 542.435 209.275 545.032 205.784 546.479C205.102 546.761 204.517 547.198 203.925 547.638C202.711 548.54 201.477 549.46 199.341 549.097C198.193 548.901 196.789 550.114 195.391 551.321C194.774 551.855 194.158 552.386 193.566 552.796C193.42 552.893 193.312 553.042 193.203 553.191C193.156 553.258 193.107 553.325 193.055 553.386C193.079 553.392 193.101 553.399 193.125 553.407L193.16 553.42L193.189 553.429L193.214 553.437L193.241 553.448L193.305 553.471C193.479 553.535 193.652 553.599 193.827 553.599C194.428 553.607 195.033 553.591 195.636 553.575C196.875 553.542 198.112 553.508 199.318 553.678C200.491 553.841 202.587 554.792 202.535 555.152C202.255 557.031 202.142 558.919 202.028 560.811V560.813C201.846 563.846 201.663 566.892 200.794 569.931C200.245 571.844 199.355 573.561 198.47 575.27C197.798 576.565 197.131 577.854 196.617 579.218C195.262 582.811 191.956 585.965 188.881 588.635C186.248 590.923 183.331 592.9 180.412 594.878C178.957 595.864 177.501 596.852 176.079 597.878C174.392 599.1 172.738 600.366 171.083 601.631C170.12 602.367 169.159 603.104 168.189 603.831L167.9 604.048C166.417 605.157 164.932 606.268 163.413 607.333C162.796 607.766 162.188 608.22 161.581 608.675C159.989 609.865 158.396 611.058 156.619 611.859C153.762 613.141 152.001 615.244 152.025 617.92C152.04 619.876 152.587 621.826 153.136 623.779C153.41 624.756 153.685 625.733 153.893 626.712C154.019 627.298 154.028 627.908 154.036 628.518C154.04 628.798 154.043 629.078 154.058 629.355C153.479 629.337 152.883 629.363 152.285 629.39C150.939 629.448 149.591 629.508 148.444 629.068C147.07 628.542 145.827 627.709 144.58 626.874C143.705 626.288 142.829 625.7 141.903 625.217C138.572 623.474 136.74 620.517 134.986 617.521C133.73 615.375 132.683 613.107 131.645 610.851L131.502 610.543C131.466 610.464 131.428 610.383 131.387 610.297C130.976 609.418 130.449 608.293 130.769 607.687C131.817 605.709 133.194 603.859 134.656 602.127C137.554 598.69 140.544 595.323 143.534 591.957L144.567 590.794C144.994 590.312 145.412 589.816 145.831 589.32C147.042 587.883 148.258 586.441 149.725 585.312C153.742 582.226 156.963 578.589 159.783 574.456C161.98 571.235 162.842 567.997 162.021 564.265C161.971 564.027 162.132 563.747 162.293 563.467C162.369 563.337 162.444 563.205 162.499 563.077C161.809 562.909 161.119 562.738 160.429 562.567L160.401 562.56L160.373 562.553C159.684 562.383 158.995 562.212 158.307 562.044C158.239 562.321 158.147 562.599 158.053 562.879C157.85 563.486 157.649 564.094 157.71 564.675C158.2 569.217 156.708 572.613 153.163 575.913C148.618 580.145 144.447 584.758 140.277 589.37L140.274 589.374C138.888 590.907 137.503 592.441 136.103 593.96C135.358 594.766 134.574 595.527 133.792 596.287C131.113 598.888 128.463 601.46 127.545 605.76C126.845 609.041 127.696 611.446 128.581 613.943ZM259.255 510.117L259.252 510.118H259.25H259.248H259.246H259.245C258.07 510.204 256.892 510.289 255.706 510.356C237.79 511.362 217.491 506.215 216.059 505.571C214.497 504.867 212.787 504.469 211.078 504.072C210.399 503.915 209.72 503.756 209.051 503.579C208.473 503.427 207.89 503.286 207.308 503.146C206.397 502.927 205.486 502.707 204.588 502.44C202.178 501.718 199.779 500.951 197.399 500.14C196.546 499.85 195.718 499.441 194.946 498.981C194.377 498.642 193.797 498.316 193.216 497.992H193.214C191.596 497.087 189.975 496.179 188.634 494.981C187.303 493.791 186.339 492.183 185.394 490.607L185.309 490.465C185.165 490.224 185.019 489.983 184.873 489.745C183.835 488.05 182.889 486.263 182.13 484.449C178.94 476.818 182.936 468.571 184.613 465.924C186.735 462.572 190.686 460.731 193.91 460.165C196.674 459.681 200.325 459.57 203.674 460.692C205.978 461.464 207.984 462.632 209.98 463.793C211.166 464.485 212.348 465.172 213.587 465.776C217.751 467.798 221.477 470.422 225.173 473.023L225.607 473.329C227.74 474.829 229.571 476.723 231.407 478.62C232.535 479.787 233.665 480.956 234.866 482.034C236.73 483.707 238.742 485.228 240.75 486.746C241.225 487.106 241.701 487.464 242.174 487.826C242.669 488.205 243.161 488.597 243.652 488.991L243.653 488.993C245.14 490.183 246.632 491.378 248.31 492.21C250.436 493.264 252.725 494.018 255.008 494.772H255.009H255.011H255.012V494.773H255.013H255.015H255.016L255.018 494.775H255.019C255.748 495.015 256.479 495.256 257.203 495.507C258.962 496.116 260.744 496.692 262.555 497.124C262.757 497.173 262.96 497.221 263.163 497.272H263.164L263.165 497.273C264.583 497.621 266.047 497.981 267.449 497.869C271.527 497.546 271.715 497.408 275.112 494.901C275.294 494.767 275.484 494.627 275.686 494.479C276.096 494.176 276.779 493.955 277.259 494.053C280.07 494.624 282.955 495.311 284.777 497.584C285.173 498.077 284.227 500.077 283.396 500.908C283.24 501.065 283.085 501.22 282.931 501.376C280.452 503.865 278.026 506.302 274.426 507.736C271.302 508.982 268.344 509.693 265.063 509.782C263.122 509.835 261.193 509.975 259.256 510.117H259.255ZM170.484 435.128C170.467 434.843 170.449 434.559 170.416 434.286C170.264 433.061 170.131 431.833 169.997 430.605V430.602C169.943 430.097 169.887 429.591 169.831 429.086C170.15 426.528 170.43 424.527 170.798 422.539C170.864 422.184 170.92 421.822 170.976 421.458C171.155 420.285 171.337 419.102 171.871 418.105C172.48 416.968 173.243 415.909 174.007 414.851C174.739 413.835 175.471 412.819 176.069 411.733C178.103 408.038 181.632 406.211 185.111 404.408C186.045 403.924 186.976 403.442 187.873 402.927C189.796 401.821 192.192 401.457 194.559 401.097C195.319 400.983 196.077 400.868 196.814 400.729C198.757 400.364 200.767 400.138 202.742 400.175C205.901 400.235 208.949 400.941 212.042 401.694C216.254 402.718 219.635 404.821 222.73 407.495C223.364 408.044 223.732 408.879 224.101 409.717C224.281 410.126 224.46 410.535 224.672 410.911C225.108 411.688 225.551 412.461 225.993 413.233L225.994 413.236L225.997 413.24L226 413.245V413.247V413.248H226.001V413.249H226.003V413.251V413.252H226.004V413.253V413.255C226.749 414.555 227.493 415.855 228.206 417.17C229.203 419.01 227.542 421.079 225.352 421.191C223.821 421.27 212.486 422.201 208.392 425.684C204.901 428.654 204.052 429.794 202.685 431.632C202.448 431.95 202.198 432.289 201.914 432.661C200.909 433.981 200.056 440.037 200.602 441.651C201.079 443.062 201.734 444.417 202.389 445.771V445.773V445.774H202.391V445.775V445.777V445.778H202.392C202.916 446.862 203.439 447.946 203.875 449.06C204.185 449.858 204.259 450.742 204.334 451.626C204.367 452.027 204.402 452.429 204.457 452.822C204.057 452.811 203.653 452.815 203.249 452.819C202.333 452.83 201.417 452.84 200.539 452.667C199.563 452.474 198.621 452.117 197.679 451.758H197.678C197.258 451.598 196.838 451.438 196.415 451.294C194.592 450.667 192.766 450.042 190.94 449.418L188.209 448.481C187.62 448.28 187.023 448.093 186.427 447.905C185.113 447.494 183.798 447.082 182.561 446.512C177.896 444.361 173.533 441.761 170.914 437.214C170.577 436.626 170.53 435.873 170.484 435.128ZM218.608 582.627C218.896 583.785 219.185 584.944 219.449 586.106C219.493 586.297 219.361 586.523 219.231 586.75C219.169 586.854 219.109 586.959 219.066 587.061C219.452 589.186 219.817 590.755 220.229 592.312C220.52 593.416 220.821 594.518 221.122 595.621L221.123 595.625C221.699 597.733 222.274 599.843 222.785 601.964C223.068 603.146 223.203 604.422 223.084 605.618C222.764 608.846 226.6 615.845 229.662 616.329C231.744 616.658 233.885 616.628 236.029 616.598C237.357 616.579 238.688 616.56 240.007 616.627C241.043 616.677 242.168 617.15 242.998 617.757C243.257 617.947 242.927 619.427 242.443 619.937C241.31 621.136 240.01 622.232 238.62 623.137C233.698 626.352 228.08 626.302 222.482 626.116C217.533 625.953 213.02 624.851 210.017 620.478C208.606 618.424 207.115 616.421 205.624 614.419C204.702 613.183 203.781 611.945 202.878 610.695C202.122 609.646 201.387 608.585 200.651 607.524C199.751 606.224 198.851 604.926 197.913 603.651C197.206 602.692 196.456 601.755 195.704 600.819C194.088 598.803 192.472 596.789 191.305 594.555C190.698 593.392 191.921 590.794 193.044 589.417C194.239 587.949 195.594 586.602 196.946 585.254C198.491 583.716 200.035 582.178 201.341 580.467C201.968 579.642 202.187 578.509 202.403 577.384C202.633 576.202 202.858 575.027 203.558 574.227C205.339 572.193 205.364 569.926 205.388 567.701C205.397 566.739 205.407 565.785 205.56 564.86C205.78 563.518 205.984 562.167 206.188 560.817L206.19 560.814C206.618 557.984 207.048 555.149 207.623 552.357C207.836 551.333 208.964 550.466 210.05 549.632C210.413 549.355 210.771 549.079 211.089 548.805C211.232 548.681 212.342 549.176 212.486 549.563C212.973 550.867 213.345 552.239 213.544 553.617C213.78 555.258 213.979 556.906 214.178 558.552V558.554V558.555V558.556L214.179 558.558V558.559V558.56V558.562V558.563L214.181 558.566C214.441 560.723 214.701 562.88 215.047 565.023C215.226 566.133 215.544 567.222 215.86 568.31V568.312H215.862V568.313V568.315V568.316V568.317V568.319H215.863V568.32V568.321V568.323V568.324L215.865 568.325V568.327V568.328V568.33V568.331V568.332H215.866V568.334V568.335V568.336C216.145 569.293 216.423 570.248 216.608 571.219C216.794 572.192 216.882 573.184 216.972 574.175V574.177C217.064 575.21 217.158 576.244 217.359 577.256C217.718 579.05 218.16 580.829 218.602 582.608L218.604 582.609V582.61V582.612V582.613L218.605 582.614V582.616V582.617V582.618L218.607 582.62V582.621V582.623V582.624L218.608 582.625V582.627ZM215.351 452.762C214.265 453.072 212.483 452.219 211.474 451.379C210.576 450.633 209.906 449.632 209.236 448.631C208.946 448.2 208.657 447.768 208.35 447.358C208.077 446.959 207.805 446.581 207.542 446.215C206.692 445.032 205.941 443.985 205.519 442.823C205.263 442.118 205.263 441.332 205.262 440.541C205.262 439.906 205.262 439.271 205.13 438.669C204.521 435.877 206.076 434.131 207.679 432.333L207.68 432.331C207.914 432.068 208.151 431.803 208.38 431.534C210.238 429.36 212.522 427.748 215.043 426.524C216.489 425.82 218.241 425.528 219.879 425.425C220.934 425.358 222.005 425.403 223.073 425.449C224.616 425.514 226.153 425.579 227.628 425.306C229.275 425.001 229.793 425.759 230.339 426.61C230.846 427.405 231.161 428.436 231.189 429.375C231.262 431.852 231.176 434.338 231.04 436.814C231.031 437.009 230.811 437.187 230.585 437.367C230.366 437.547 230.142 437.727 230.107 437.931C229.313 442.672 226.321 446.243 222.939 449.287C220.969 451.061 218.024 451.996 215.351 452.762ZM250.208 488.242C250.154 488.297 250.099 488.354 250.054 488.396C249.63 488.04 249.217 487.693 248.814 487.352C247.155 485.952 245.656 484.689 244.087 483.514C243.691 483.216 243.208 483.022 242.727 482.829C242.202 482.617 241.68 482.408 241.272 482.066C239.892 480.91 238.558 479.702 237.224 478.495C236.093 477.474 234.964 476.452 233.806 475.46C231.437 473.431 229.005 471.468 226.55 469.537C226.035 469.132 225.524 468.719 225.013 468.306C223.273 466.899 221.528 465.489 219.607 464.371C217.788 463.311 215.849 462.444 213.911 461.576H213.909C212.736 461.052 211.563 460.528 210.415 459.96C209.145 459.331 207.951 458.554 206.759 457.781C206.582 457.664 206.402 457.547 206.223 457.431C206.194 457.414 206.586 456.429 206.845 456.398C207.778 456.288 208.726 456.126 209.675 455.963H209.676C212.123 455.543 214.581 455.122 216.839 455.588C220.033 456.25 223.262 457.365 226.288 459.386C231.278 462.72 235.687 466.535 239.877 470.672C244.482 475.22 249.024 479.828 253.566 484.435L255.225 486.118C257.236 488.157 259.189 490.251 261.14 492.346C261.318 492.536 261.441 493.024 261.322 493.177C260.926 493.682 260.241 494.557 259.967 494.464C259.063 494.155 258.243 493.575 257.446 493.013L257.302 492.911C256.101 492.066 254.91 491.21 253.717 490.353C252.63 489.573 251.543 488.792 250.45 488.019C250.434 488.007 250.322 488.123 250.208 488.242ZM772.212 625.312C771.694 625.332 771.147 625.407 770.6 625.483C769.395 625.649 768.188 625.814 767.288 625.385C767.233 625.359 767.085 625.287 766.846 625.169L766.787 625.14L766.776 625.135C757.742 620.712 635.976 561.089 511.759 524.404C404.082 492.604 290.989 483.599 286.152 483.215L286.013 483.204C285.497 483.161 400.94 480.385 513.458 513.134C642.812 550.783 771.673 624.681 772.212 625.312ZM368.655 416.805V416.803C368.793 415.572 368.931 414.327 369.088 413.063C369.003 412.73 368.923 412.403 368.843 412.084C368.478 410.602 368.147 409.262 367.631 407.996C367.583 407.878 367.536 407.76 367.488 407.64L367.42 407.469C366.629 405.481 365.835 403.491 363.177 402.873C362.592 402.736 362.092 402.3 361.584 401.855C361.167 401.49 360.743 401.12 360.263 400.91C358.857 400.296 357.328 399.868 355.807 399.608C355.039 399.478 354.251 399.459 353.461 399.44C352.685 399.421 351.909 399.402 351.151 399.277C349.791 399.051 348.439 398.767 347.089 398.485C345.01 398.049 342.934 397.614 340.832 397.39C340.024 397.303 339.215 397.23 338.407 397.155H338.405C336.15 396.947 333.898 396.741 331.648 396.279C329.565 395.849 327.399 395.79 325.237 395.73H325.236H325.235C324.545 395.711 323.855 395.692 323.169 395.662C322.854 395.647 322.529 395.749 322.206 395.849C321.849 395.961 321.493 396.071 321.159 396.022C318.774 395.673 316.4 395.252 314.026 394.83C313.42 394.723 312.814 394.616 312.209 394.51C311.152 394.325 310.102 394.34 309.04 394.356C307.853 394.374 306.652 394.393 305.409 394.131C303.276 393.682 301.052 393.666 298.811 393.65C297.303 393.639 295.789 393.627 294.287 393.484C291.188 393.189 288.051 393.26 284.914 393.329C283.631 393.359 282.349 393.388 281.069 393.392C279.177 393.397 276.825 395.512 276.691 397.311C276.652 397.819 276.681 398.378 276.711 398.935V398.936V398.937V398.939V398.94V398.941V398.943V398.944C276.772 400.121 276.832 401.292 276.267 401.986C274.835 403.745 275.029 405.635 275.225 407.534C275.386 409.092 275.547 410.655 274.811 412.156C274.082 413.641 274.174 415.426 274.267 417.211C274.311 418.082 274.356 418.953 274.306 419.788C274.22 421.193 274.09 422.599 273.96 424.005C273.705 426.76 273.451 429.518 273.532 432.285C273.543 432.66 273.645 433.038 273.746 433.414V433.415C273.873 433.889 273.999 434.36 273.942 434.813C273.696 436.751 273.395 438.681 273.094 440.613L273.092 440.614C272.842 442.227 272.59 443.839 272.37 445.456C272.212 446.619 272.219 447.783 272.226 448.953C272.236 450.453 272.245 451.961 271.905 453.494C271.512 455.273 271.505 457.112 271.497 458.968C271.49 460.369 271.484 461.78 271.312 463.181C271.091 464.982 271.127 466.8 271.165 468.624V468.626C271.214 471.086 271.264 473.559 270.682 476.02C270.324 477.542 270.228 479.12 270.132 480.702C270.072 481.715 270.01 482.73 269.878 483.733C269.831 484.102 269.587 484.518 269.362 484.902H269.361C269.092 485.36 268.848 485.777 268.99 486.022C269.44 486.803 270.503 487.402 271.438 487.738C273.984 488.65 277.413 487.45 277.557 485.693C277.622 484.909 277.716 484.121 277.808 483.33V483.328L277.809 483.326C278.053 481.259 278.296 479.187 278.036 477.18C277.792 475.312 278.231 473.579 278.666 471.855C279.035 470.393 279.404 468.94 279.352 467.418C279.336 466.951 279.92 466.061 280.256 466.047C284.602 465.867 288.954 465.762 293.306 465.739C294.857 465.731 296.407 465.773 297.958 465.816C299.663 465.864 301.367 465.911 303.07 465.89C304.858 465.868 306.645 465.795 308.434 465.72C311.319 465.602 314.203 465.482 317.083 465.581C318.89 465.642 320.684 465.997 322.48 466.352C323.733 466.599 324.987 466.846 326.247 466.996C327.028 467.088 327.813 467.106 328.598 467.123C329.876 467.152 331.158 467.179 332.442 467.529C333.198 467.735 334.015 467.71 334.837 467.684C335.598 467.661 336.362 467.637 337.079 467.798C338.252 468.061 339.391 468.463 340.532 468.863H340.534C341.512 469.209 342.49 469.552 343.493 469.81C344.636 470.105 345.819 470.259 347.002 470.412C347.598 470.49 348.193 470.567 348.785 470.662C349.31 470.748 349.86 470.899 350.409 471.048C351.597 471.373 352.781 471.697 353.702 471.351C355.518 470.672 357.297 469.146 358.355 467.529C359.43 465.886 359.868 463.792 360.282 461.813L360.344 461.518C360.471 460.913 360.403 460.24 360.337 459.578C360.249 458.711 360.163 457.866 360.52 457.23C361.599 455.305 361.884 453.253 362.166 451.205C362.306 450.2 362.445 449.195 362.677 448.207C362.789 447.736 362.73 447.183 362.674 446.646C362.6 445.936 362.529 445.254 362.856 444.831C364.323 442.944 364.533 440.789 364.743 438.632C364.876 437.274 365.009 435.914 365.456 434.62C366.072 432.835 366.424 430.912 366.778 428.988V428.987C366.931 428.152 367.085 427.318 367.26 426.495C367.929 423.343 368.286 420.128 368.655 416.806V416.805ZM358.026 450.343C357.633 452.303 357.241 454.251 356.345 456.072C356.299 456.483 356.269 456.862 356.241 457.211V457.214V457.215C356.169 458.157 356.111 458.889 355.791 459.49C355.294 460.424 355.228 461.508 355.164 462.59C355.057 464.356 354.951 466.115 352.962 467.205C352.876 467.251 352.788 467.301 352.699 467.351C352.065 467.707 351.334 468.118 350.771 467.998C350.199 467.874 349.661 467.582 349.127 467.292C348.565 466.986 348.004 466.682 347.405 466.573C346.347 466.38 345.266 466.299 344.187 466.218C342.948 466.125 341.711 466.032 340.511 465.771C339.488 465.55 338.505 465.151 337.523 464.751C336.523 464.345 335.524 463.94 334.483 463.721C333.156 463.442 331.79 463.345 330.422 463.249C329.358 463.173 328.293 463.097 327.245 462.936C318.264 461.553 309.248 461.761 300.231 461.969C294.829 462.094 289.426 462.218 284.03 462C282.161 461.924 280.591 461.825 280.455 459.509C280.406 458.676 280.252 457.805 280.099 456.936C279.783 455.146 279.468 453.367 280.075 451.953C281.358 448.973 281.205 446.031 281.054 443.102C280.991 441.871 280.928 440.644 280.97 439.416C281.376 427.859 281.482 416.288 281.576 404.723C281.577 404.553 281.577 404.385 281.577 404.219V404.218C281.582 402.325 281.586 400.57 283.022 398.994C283.849 398.088 284.578 397.75 285.856 397.838C287.358 397.944 288.867 397.965 290.375 397.985C292.084 398.008 293.793 398.031 295.491 398.177C297.193 398.323 298.886 398.581 300.579 398.839C302.36 399.111 304.141 399.383 305.934 399.524C307.084 399.615 308.277 399.532 309.463 399.452H309.464H309.465H309.467H309.468H309.47C311.312 399.326 313.138 399.201 314.758 399.724C318.037 400.784 321.348 400.861 324.65 400.937C326.363 400.978 328.073 401.017 329.775 401.194C331.098 401.331 332.489 401.229 333.87 401.127C335.943 400.975 337.988 400.824 339.727 401.494C342.59 402.596 345.448 402.618 348.267 402.637C349.384 402.645 350.495 402.653 351.597 402.729C356.244 403.047 360.28 404.333 362.855 407.636C364.351 409.553 365.793 412.728 363.91 415.71C363.745 415.972 363.787 416.351 363.832 416.737C363.856 416.954 363.881 417.173 363.87 417.374C363.814 418.332 363.825 419.315 363.836 420.299C363.861 422.555 363.887 424.813 363.106 426.765C362.355 428.64 361.997 430.567 361.639 432.486C361.339 434.097 361.04 435.703 360.51 437.272C360.141 438.367 360.149 439.601 360.156 440.825C360.166 442.208 360.175 443.58 359.637 444.729C358.792 446.537 358.408 448.445 358.026 450.343ZM274.885 462.469C274.808 462.393 274.73 462.318 274.673 462.256C275.745 462.36 276.957 462.572 277.213 463.17C277.493 463.823 277.451 464.604 277.41 465.386C277.394 465.718 277.375 466.05 277.382 466.372C277.301 466.372 277.21 466.384 277.118 466.395C276.918 466.419 276.716 466.445 276.628 466.36C276.503 466.239 276.415 466.057 276.33 465.882C276.221 465.655 276.116 465.44 275.945 465.38C273.946 464.686 273.893 464.56 275.197 462.825C275.22 462.795 275.052 462.632 274.885 462.469ZM495.021 674.846L495.022 674.848C495.718 675.193 496.402 675.532 497.093 675.864C497.61 676.114 498.154 676.326 498.694 676.536H498.695C499.588 676.884 500.477 677.229 501.246 677.748C502.197 678.385 502.995 679.244 503.789 680.098L503.908 680.226L503.997 680.323L504.105 680.438C504.167 680.502 504.227 680.567 504.289 680.631C504.34 680.687 504.392 680.741 504.444 680.795L504.542 680.896C504.658 681.019 504.577 681.582 504.483 681.61C504.258 681.676 504.02 681.764 503.779 681.854C503.117 682.099 502.434 682.354 501.929 682.172C501.096 681.869 500.239 681.625 499.381 681.381C496.834 680.655 494.288 679.93 492.39 677.664C490.848 675.819 488.717 674.291 486.557 673.143C485.583 672.632 483.805 673.385 483.405 674.954C482.394 678.906 471.321 694.584 454.745 694.586C438.168 694.586 412.089 692.927 405.156 684.849C395.415 673.499 399.168 651.822 399.529 649.737L399.55 649.621C399.665 648.913 399.126 648.019 398.668 647.355C398.528 647.153 397.54 647.271 397.123 647.525C395.845 648.307 394.602 649.142 393.359 649.977H393.358V649.978L393.345 649.985L393.286 650.026C393.099 650.151 392.911 650.277 392.724 650.402C392.43 650.601 392.134 650.798 391.838 650.993C391.542 651.188 391.247 651.386 390.953 651.584L390.781 651.701L390.542 651.863L390.141 652.134L390.124 652.145C388.578 653.197 387.03 654.25 385.384 655.125C384.88 655.394 384.047 655.131 383.27 654.887C383.039 654.813 382.812 654.741 382.602 654.687C382.16 654.566 381.744 654.358 381.329 654.15C381.14 654.057 380.952 653.963 380.76 653.877C381.1 653.584 381.431 653.277 381.761 652.97H381.762V652.969H381.764C382.496 652.289 383.228 651.61 384.058 651.072C385.183 650.347 386.363 649.699 387.543 649.049H387.545C388.404 648.576 389.264 648.105 390.102 647.602C392.274 646.298 394.415 644.938 396.53 643.55C396.786 643.381 397.046 643.216 397.308 643.049H397.309L397.311 643.047V643.046C398.393 642.357 399.487 641.66 400.331 640.755C403.917 636.911 407.948 633.649 412.131 630.406C414.075 628.902 416.205 627.871 418.325 626.844C419.811 626.124 421.293 625.407 422.702 624.53C423.691 623.918 424.943 623.714 426.199 623.51C426.891 623.397 427.585 623.285 428.239 623.103C429.501 622.751 430.753 622.362 432.004 621.974H432.005C432.933 621.686 433.863 621.398 434.797 621.123C435.061 621.049 435.356 621.058 435.646 621.068C435.743 621.07 435.838 621.073 435.932 621.073C437.085 621.073 438.241 621.043 439.399 621.013C442.117 620.943 444.833 620.872 447.499 621.191C449.169 621.394 450.766 622.152 452.363 622.911L452.366 622.912C453.083 623.252 453.801 623.593 454.524 623.884C454.486 623.946 454.451 624.022 454.418 624.098C454.351 624.251 454.283 624.4 454.183 624.43C450.336 625.464 446.584 626.077 442.645 624.317C441.428 623.774 439.802 623.972 438.282 624.157C437.977 624.195 437.677 624.232 437.385 624.261C435.967 624.408 434.567 624.745 433.174 625.082C432.862 625.158 432.549 625.233 432.235 625.306C432.052 625.35 431.867 625.39 431.681 625.431C431.574 625.454 431.468 625.477 431.36 625.5C430.282 625.733 429.196 625.968 428.222 626.415C424.7 628.022 421.212 629.726 417.784 631.524C416.648 632.119 415.562 632.8 414.475 633.48H414.474V633.482H414.473V633.483H414.471H414.47C413.486 634.1 412.502 634.717 411.481 635.268C410.919 635.574 410.311 635.812 409.705 636.048L409.704 636.049C408.132 636.663 406.564 637.276 405.8 639.057C405.74 639.194 405.559 639.284 405.381 639.374C405.342 639.394 405.303 639.413 405.267 639.433C405.227 639.454 405.191 639.474 405.156 639.496C405.558 639.507 405.966 639.545 406.375 639.583C407.292 639.669 408.207 639.754 409.037 639.525C410.437 639.143 411.768 638.523 413.099 637.905C413.26 637.83 413.42 637.757 413.58 637.682L413.727 637.614C413.971 637.502 414.218 637.39 414.464 637.282C415.125 636.991 415.777 636.677 416.428 636.363C417.693 635.753 418.957 635.145 420.28 634.706C421.065 634.448 421.916 634.396 422.773 634.346C423.383 634.309 423.996 634.274 424.59 634.161C425.694 633.956 426.786 633.671 427.878 633.385H427.879H427.881C428.432 633.241 428.983 633.097 429.536 632.964C429.802 632.902 430.092 632.885 430.371 632.885C431.552 632.883 432.749 632.941 433.946 633C436.809 633.138 439.672 633.277 442.314 632.599C443.382 632.326 444.34 632.414 445.279 632.502C446.046 632.573 446.802 632.642 447.597 632.515C449.123 632.267 450.853 632.956 452.503 633.612L452.793 633.726C452.905 633.771 453.015 633.815 453.125 633.857C453.228 633.898 453.333 633.937 453.435 633.976C453.505 634.002 453.575 634.029 453.644 634.054C455.451 634.718 457.352 635.431 458.84 636.572C460.586 637.92 462.185 639.446 463.782 640.971H463.783C464.458 641.617 465.133 642.261 465.82 642.892C465.691 643.021 465.546 643.194 465.399 643.366C465.085 643.739 464.77 644.11 464.632 644.055C463.967 643.797 422.725 638.8 406.616 647.355C400.772 650.459 406.15 672.997 406.599 674.883L406.616 674.954C409.037 685.152 446.791 691.03 461.155 688.699C478.447 685.893 479.484 668.35 479.82 662.66C479.879 661.662 479.917 661.029 480.017 660.904C480.944 659.752 482.421 659.134 483.735 660.201C484.361 660.708 484.778 661.692 484.883 662.501C484.979 663.268 485.227 663.998 485.466 664.708L485.468 664.709C485.658 665.273 485.846 665.823 485.948 666.369C486.268 668.092 487.412 669.172 488.565 670.263C489.373 671.028 490.188 671.796 490.727 672.795C492.258 673.476 493.656 674.17 495.021 674.846ZM71.1474 567.762C70.6057 567.645 70.0654 567.527 69.7042 567.722C68.4445 568.404 14.8897 591.661 -22.5053 571.764C-22.963 571.519 -23.6222 571.189 -24.4103 570.794C-29.0909 568.445 -38.3655 563.792 -37.8098 561.155C-36.2967 553.975 -15.1343 544.108 -12.3825 542.826C-12.2033 542.743 -12.1025 542.695 -12.0899 542.687C-12.2089 542.505 -12.3167 542.288 -12.4259 542.072C-12.6652 541.591 -12.9046 541.111 -13.2601 541.009C-14.2819 540.716 -15.4758 540.677 -16.5312 540.872C-17.7644 541.101 -31.1849 544.004 -33.5365 545.451C-36.0084 546.972 -42.7718 554.971 -42.6487 557.552C-42.5941 558.654 -42.9734 559.775 -43.3541 560.9C-43.5529 561.489 -43.753 562.082 -43.8916 562.674C-43.9742 563.019 -43.9896 563.397 -44.005 563.772C-44.0302 564.364 -44.0554 564.948 -44.3395 565.383C-44.6489 565.857 -45.0142 566.619 -45.4579 567.542C-46.3271 569.354 -47.4973 571.788 -49.1308 573.893C-50.3555 575.471 -52.0212 576.797 -53.2865 577.805L-53.2879 577.807C-54.0438 578.408 -54.6569 578.897 -54.948 579.257C-55.1244 579.475 -55.3553 579.692 -55.5933 579.914C-56.247 580.528 -56.9398 581.178 -56.6039 581.957C-56.1504 583.008 -54.5519 582.492 -53.6939 582.215L-53.6743 582.21C-52.4243 581.81 -51.2345 581.034 -50.2128 580.196C-48.7808 579.021 -47.4315 577.724 -46.2249 576.334C-44.9876 574.906 -43.781 573.4 -42.8964 571.764C-41.9208 569.948 -39.7624 569.196 -37.8098 570.499C17.0999 607.147 68.912 572.214 71.3321 570.128C71.6639 569.843 71.7226 569.26 71.7814 568.676C71.8094 568.407 71.836 568.137 71.8892 567.896C71.6541 567.873 71.4007 567.817 71.1474 567.762ZM319.129 361.764C318.047 362.817 316.969 363.851 315.899 364.876C313.207 367.455 310.57 369.983 308.077 372.639C307.201 373.574 306.653 374.8 306.107 376.026C305.872 376.556 305.636 377.084 305.374 377.588C303.963 380.305 301.88 381.325 298.217 382.867C296.099 383.758 293.882 384.612 291.924 384.238C290.55 383.977 289.168 383.996 287.808 384.017C286.299 384.038 284.815 384.06 283.39 383.697C281.656 383.256 279.756 381.809 278.881 380.296C278.126 378.985 278.972 377.284 280.481 375.875C282.147 374.319 283.582 372.537 285.018 370.751V370.749C285.848 369.718 286.678 368.686 287.553 367.695C288.489 366.64 289.416 365.575 290.344 364.509L290.351 364.501C293.423 360.975 296.497 357.445 299.859 354.198C302.639 351.515 306.095 349.786 310.169 348.673C313.876 347.661 316.709 347.911 320.024 349.287C321.259 349.801 322.686 349.873 324.115 349.946H324.116C324.813 349.981 325.512 350.018 326.189 350.105C328.35 350.382 329.63 352.357 328.238 353.319C327.01 354.17 324.714 355.007 323.687 354.454C318.043 351.416 312.417 352.135 306.891 354.172C305.419 354.716 304.198 355.96 303.001 357.18C302.618 357.57 302.237 357.959 301.852 358.32C298.895 361.096 295.947 363.886 293.14 366.804C292.056 367.933 291.125 369.205 290.197 370.476C289.853 370.946 289.508 371.416 289.157 371.879C288.923 372.187 288.689 372.495 288.454 372.802C287.271 374.352 286.087 375.903 284.986 377.506C284.167 378.699 284.273 378.926 285.555 379.321C288.752 380.31 291.874 380.116 295.052 378.994C298.934 377.623 301.168 374.75 303.486 371.767L303.491 371.76C303.773 371.397 304.057 371.033 304.344 370.67C306.235 368.281 308.529 366.191 310.823 364.102V364.101C311.824 363.19 312.825 362.279 313.792 361.343C313.961 361.18 314.135 361.019 314.31 360.86C314.621 360.575 314.93 360.291 315.214 359.983C316.621 358.449 318.04 356.974 320.434 357.099C320.543 357.104 320.651 356.971 320.767 356.83C320.856 356.721 320.95 356.607 321.052 356.543C321.203 356.448 321.387 356.399 321.569 356.35C321.649 356.33 321.73 356.308 321.807 356.284C321.794 356.361 321.789 356.441 321.783 356.521V356.524C321.77 356.699 321.758 356.876 321.684 357.023C320.894 358.563 320.08 360.092 319.129 361.764ZM340.415 339.927C344.401 336.268 348.414 332.585 351.131 327.612C350.476 327.399 349.815 327.351 349.16 327.302C348.851 327.28 348.543 327.257 348.238 327.218C347.728 327.153 347.215 327.026 346.704 326.901C345.808 326.684 344.919 326.467 344.068 326.573C342.49 326.77 340.861 327.396 339.492 328.212C337.485 329.409 335.349 330.361 333.209 331.315C330.051 332.723 326.885 334.134 324.108 336.342C323.345 336.948 322.97 337.626 322.613 338.274C322.325 338.793 322.048 339.292 321.59 339.719C321.818 339.763 322.046 339.803 322.274 339.844H322.276C322.782 339.932 323.289 340.022 323.785 340.15C324.966 340.455 326.145 340.773 327.323 341.091C328.325 341.36 329.327 341.63 330.331 341.893C330.601 341.963 330.871 342.039 331.142 342.114C332.008 342.356 332.874 342.598 333.758 342.69C333.996 342.715 334.254 342.749 334.52 342.785C335.679 342.94 336.999 343.117 337.537 342.605C338.482 341.701 339.447 340.815 340.415 339.927ZM340.584 331.788C340.626 331.803 340.667 331.816 340.704 331.827C341.355 331.36 342.302 331.236 342.583 331.6C342.957 332.083 343.143 333.337 342.838 333.578C340.861 335.137 338.802 336.628 336.614 337.885C335.775 338.367 334.519 338.294 333.469 338.225C333.143 338.203 332.515 337.223 332.641 336.933C332.69 336.819 332.741 336.696 332.795 336.57L332.796 336.567L332.799 336.559C333.228 335.539 333.784 334.221 334.429 334.14C336.432 333.888 337.922 332.914 339.454 331.913C339.603 331.815 339.753 331.717 339.904 331.621C340.007 331.553 340.216 331.638 340.426 331.724L340.5 331.755C340.529 331.766 340.556 331.777 340.584 331.788ZM433.237 518.333C427.031 517.618 420.896 517.618 414.779 517.618H414.773C412.889 517.618 411.007 517.617 409.124 517.597C407.965 517.583 406.645 517.355 405.713 516.764C405.156 516.415 404.942 515.104 405.099 514.327C405.202 513.832 406.274 513.177 406.9 513.19C408.105 513.213 410.139 513.119 412.59 513.006C418.416 512.74 426.593 512.364 431.555 513.19C442.946 515.085 448.848 522.142 448.507 522.112C447.981 522.068 447.443 522.044 446.907 522.021C445.542 521.964 444.172 521.906 442.946 521.474C442.002 521.141 441.084 520.742 440.162 520.339C437.996 519.397 435.809 518.444 433.237 518.333ZM368.307 319.132C370.514 318.28 370.601 317.015 368.509 315.805C367.911 315.965 367.382 316.146 366.883 316.317C366.307 316.515 365.772 316.699 365.222 316.817C364.031 317.074 362.833 317.305 361.634 317.536H361.633C359.815 317.886 357.997 318.237 356.202 318.679C355.562 318.837 354.634 319.865 354.713 320.365C354.85 321.238 355.453 322.062 356.022 322.838C356.08 322.919 356.141 323.001 356.199 323.081C356.304 323.225 357.069 323.008 357.477 322.839C357.994 322.627 358.502 322.391 359.009 322.153C359.827 321.772 360.648 321.388 361.503 321.11C362.455 320.8 363.428 320.55 364.4 320.3C365.723 319.959 367.044 319.62 368.307 319.132ZM374.88 312.432C374.912 310.638 374.923 310.637 377.589 310.197L377.864 310.151C378.428 310.057 378.967 309.83 379.508 309.602C379.953 309.414 380.399 309.225 380.861 309.111C381.096 309.053 381.831 309.744 381.775 309.932C381.74 310.047 381.704 310.172 381.666 310.303C381.422 311.151 381.113 312.226 380.643 312.322C380.121 312.428 379.6 312.684 379.075 312.942C377.727 313.605 376.357 314.278 374.88 312.432ZM390.315 305.606C390.532 305.582 390.747 305.559 390.953 305.545C392.56 305.263 392.605 304.29 392.647 303.347C392.665 302.931 392.683 302.521 392.836 302.179C392.601 302.221 392.36 302.252 392.12 302.285H392.119C391.577 302.357 391.036 302.43 390.537 302.614C390.432 302.652 390.32 302.692 390.204 302.733C389.413 303.013 388.445 303.357 388.292 303.869C387.689 305.893 389.017 305.748 390.315 305.606ZM408.672 298.902L408.576 298.944C408.095 299.157 407.683 299.339 407.323 299.267C406.815 299.163 406.332 298.936 405.847 298.71C405.643 298.614 405.439 298.519 405.232 298.432C405.351 298.398 405.47 298.364 405.587 298.329C405.748 298.283 405.906 298.234 406.066 298.186L406.071 298.183H406.073H406.074C406.717 297.989 407.361 297.795 408.018 297.666C408.986 297.477 409.211 297.745 408.91 298.799C408.829 298.833 408.749 298.868 408.672 298.902ZM504.804 223.191V223.193C504.932 223.695 505.063 224.209 505.208 224.73C505.364 225.241 505.537 225.661 505.697 226.047C505.83 226.366 505.953 226.662 506.048 226.968C507.194 230.651 507.663 234.409 507.576 238.268C507.557 239.109 507.765 239.953 507.974 240.798C508.134 241.442 508.293 242.087 508.353 242.736C508.427 243.539 508.409 244.369 508.393 245.197C508.36 246.668 508.328 248.13 508.822 249.409C509.596 251.427 509.413 253.37 509.235 255.261C509.202 255.621 509.168 255.978 509.14 256.334C508.903 259.399 507.687 262.052 504.35 263.766C503.394 264.257 502.44 264.391 501.498 264.524C500.659 264.643 499.832 264.758 499.021 265.124C497.917 265.624 496.719 265.795 495.501 265.969C493.956 266.19 492.378 266.416 490.924 267.323C490.069 267.857 488.929 267.952 487.786 268.049C486.683 268.141 485.576 268.233 484.715 268.72C482.762 269.817 481.395 269.713 479.809 268.576C479.082 268.055 478.368 267.517 477.653 266.978C476.995 266.482 476.336 265.985 475.667 265.501C474.885 264.936 474.08 264.394 473.246 263.905C472.359 263.385 471.285 263.103 470.273 262.839C469.319 262.59 468.422 262.356 467.795 261.95C466.062 260.831 464.667 261.254 463.305 261.669C462.664 261.864 462.03 262.057 461.372 262.086C460.841 262.109 460.344 262.889 459.847 263.667C459.623 264.022 459.398 264.375 459.17 264.656C459.521 264.83 459.889 265.067 460.258 265.303C461.071 265.826 461.884 266.349 462.518 266.193C462.708 266.145 462.895 266.096 463.078 266.049C464.507 265.674 465.749 265.349 467.221 266.291C467.886 266.714 468.646 266.994 469.409 267.276C470.089 267.525 470.771 267.777 471.387 268.131C471.598 268.252 471.811 268.375 472.024 268.495C473.712 269.459 475.44 270.445 476.762 271.778C478.818 273.847 481.036 274.606 483.99 273.748C486.054 273.148 488.14 272.616 490.226 272.083C491.834 271.673 493.443 271.261 495.042 270.82C495.9 270.583 496.764 270.366 497.626 270.149C501.303 269.225 504.96 268.305 508.132 265.834C512.986 262.044 513.143 256.907 512.552 251.878C512.446 250.983 512.323 250.089 512.2 249.192L512.198 249.187V249.183C511.925 247.199 511.651 245.209 511.556 243.194C511.482 241.59 511.525 239.977 511.568 238.365V238.363V238.362C511.678 234.368 511.787 230.371 510.09 226.487C509.595 225.35 509.316 224.125 509.036 222.899C508.768 221.717 508.498 220.535 508.034 219.429C507.194 217.416 505.88 215.551 504.564 213.77L504.405 213.554C503.53 212.366 502.42 210.86 501.269 210.724C500.271 210.606 499.187 211.189 498.1 211.771C497.629 212.025 497.157 212.278 496.692 212.475C496.934 212.63 497.178 212.784 497.42 212.938L497.421 212.94H497.423C498 213.307 498.578 213.673 499.143 214.055C499.45 214.266 499.745 214.518 499.989 214.798C500.322 215.18 500.679 215.551 501.034 215.923C501.902 216.829 502.771 217.735 503.326 218.795C504.021 220.12 504.398 221.602 504.804 223.191ZM457.01 277.201L456.986 277.155C456.79 277.073 456.593 277.057 456.457 277.045C456.361 277.037 456.295 277.031 456.285 277.007C456.077 276.443 455.899 275.868 455.72 275.295V275.294C455.675 275.15 455.63 275.007 455.585 274.863C455.504 275.121 455.396 275.382 455.29 275.643C455.053 276.221 454.817 276.799 454.86 277.357C455.155 281.184 455.515 284.886 457.45 288.523C458.32 290.159 458.655 292.05 458.992 293.95C459.276 295.555 459.562 297.166 460.172 298.637C460.25 298.829 460.33 299.019 460.409 299.209V299.21C461.519 301.891 462.62 304.551 463.16 307.383C463.363 308.446 463.127 309.691 462.743 310.732C462.297 311.947 461.394 312.921 460.49 313.897C459.124 315.373 457.753 316.855 457.931 319.181C457.947 319.39 457.744 319.616 457.542 319.841C457.489 319.899 457.436 319.959 457.385 320.018C457.346 320.065 457.308 320.113 457.276 320.16C457.416 320.11 457.562 320.065 457.707 320.022C458.045 319.92 458.382 319.818 458.649 319.628C458.812 319.514 458.91 319.317 459.008 319.121C459.101 318.934 459.194 318.747 459.343 318.631C459.773 318.3 460.206 317.98 460.635 317.662L460.637 317.661C463.201 315.764 465.665 313.941 466.817 310.376C467.824 307.258 467.476 304.831 466.359 302.252C465.725 300.796 464.954 299.376 464.184 297.958C462.806 295.422 461.435 292.895 460.873 290.199C460.131 286.626 459.268 283.134 458.145 279.678C457.882 278.875 457.486 278.114 457.01 277.201ZM537.172 394.344H537.171H537.169C536.582 394.211 536.005 394.079 535.427 393.954C535.059 393.875 534.692 393.794 534.325 393.712H534.324C532.822 393.38 531.319 393.047 529.796 392.827C528.973 392.707 528.134 392.684 527.294 392.66C526.676 392.642 526.056 392.624 525.44 392.567C524.513 392.483 523.535 392.391 522.7 392.04C521.956 391.729 521.27 391.29 520.585 390.85C520.482 390.783 520.378 390.717 520.275 390.652C520.194 390.6 520.112 390.548 520.03 390.497C519.919 390.427 519.807 390.358 519.694 390.292C519.872 390.283 520.049 390.278 520.226 390.273C520.437 390.266 520.648 390.26 520.86 390.256C521.767 390.233 522.674 390.21 523.57 390.108C524.011 390.058 524.447 389.932 524.884 389.807C525.462 389.641 526.036 389.475 526.61 389.489L527.223 389.504C531.121 389.596 535.026 389.688 538.902 390.066C541.416 390.311 543.908 390.831 546.392 391.35C546.981 391.474 547.569 391.596 548.157 391.715C550.339 392.157 552.503 392.685 554.663 393.215L555.392 393.393C557.316 393.862 559.226 394.363 561.14 394.866L561.147 394.868L561.95 395.079C562.226 395.151 562.492 395.254 562.758 395.356C562.882 395.405 563.006 395.453 563.131 395.498C563.033 395.629 562.934 395.796 562.836 395.965L562.835 395.966C562.619 396.334 562.402 396.705 562.187 396.704C561.156 396.697 560.126 396.878 559.093 397.06C556.94 397.437 554.779 397.818 552.594 396.499C552.205 396.264 551.756 396.311 551.242 396.366C550.589 396.436 549.833 396.516 548.963 396.04C547.42 395.195 545.398 395.178 543.278 395.161C542.374 395.154 541.451 395.146 540.541 395.074C539.325 394.833 538.229 394.585 537.172 394.344ZM83.4607 490.346C116.179 486.356 143.46 483.029 143.391 482.166C143.387 482.113 143.432 481.971 143.498 481.764C143.92 480.42 145.2 476.354 139.556 476.285C115.338 475.988 45.0258 483.993 -21.0495 497.74C-114.8 516.397 -168.812 542.399 -168.171 544.168C-167.88 544.974 -144.568 538.337 -115.958 530.193H-115.957C-81.6255 520.42 -39.6644 508.474 -20.694 504.608L-18.5818 504.182C-0.490413 500.584 45.2021 495.011 83.4607 490.346ZM3.63597 546.634C9.58339 546.634 18.1679 547.26 29.1515 550.875L31.9089 551.792C34.0085 552.495 37.911 553.534 43.5658 554.89C44.8788 555.205 45.6808 556.493 45.3561 557.768C45.0313 559.043 28.2809 555.61 28.2809 555.61C16.9571 551.864 12.4374 550.84 7.14506 551.065C1.99268 551.285 -8.89295 555.167 -17.1611 558.113V558.115C-22.9993 560.195 -27.5302 561.811 -27.8158 561.344C-28.5059 560.214 -27.6898 558.779 -26.9564 558.086C-19.5364 551.065 -15.4254 549.083 3.63597 546.634ZM407.796 505.764C408.196 505.424 408.501 504.969 408.651 504.432C409.057 502.984 397.505 500.808 389.727 503.63C388.148 504.202 386.75 505.091 385.218 506.39C384.961 506.607 384.393 507.368 383.688 508.308C382.534 509.85 381.015 511.88 379.909 512.802C378.13 514.287 375.111 515.87 373.041 516.882C372.201 517.291 369.015 517.976 365.424 518.747C359.668 519.984 352.874 521.444 353.028 522.356C353.278 523.836 356.087 523.612 357.613 523.369C360.264 522.948 362.553 522.626 364.543 522.345L364.549 522.343H364.55C369.648 521.625 372.797 521.18 375.1 520.056C377.602 518.832 379.765 517.387 381.872 515.629C382.206 515.35 382.679 514.93 383.21 514.446L384.901 512.888C384.636 514.973 385.357 516.981 387.177 518.406L387.868 518.943C409.557 535.586 433.016 538.106 457.773 526.479L458.159 526.295L458.341 527.25C458.984 530.421 459.903 533.062 461.12 535.183C462.92 538.32 465.992 541.401 470.317 544.482L473.63 540.101L473.079 539.703C469.651 537.192 467.301 534.787 466.01 532.538C464.643 530.155 463.68 526.581 463.183 521.841L462.757 517.779L459.061 519.728L458.326 520.113C434.101 532.619 411.74 530.649 390.691 514.176C390.568 514.079 390.442 512.441 390.691 511.733C391.132 510.487 392.136 507.999 394.715 507.137C396.398 506.575 407.796 505.764 407.796 505.764ZM582.947 362.784L581.783 360.74C580.907 359.217 579.771 357.263 579.21 356.365L579.027 356.081C576.741 352.645 576.324 348.291 576.91 341.241L577.154 338.635L577.378 336.366C578.037 329.381 577.871 326.719 576.553 325.343L576.353 325.145C575.042 323.917 573.509 323.932 567.976 325.124L566.625 325.421C560.233 326.843 556.006 327.189 551.119 326.06L546.893 325.042C546.325 324.907 545.76 324.773 545.239 324.649C544.77 324.539 544.337 324.436 543.973 324.35C543.391 324.211 542.984 324.116 542.883 324.092L541.74 323.808C531.663 321.246 527.422 318.493 525.836 311.827C525.457 310.236 525.612 308.591 526.207 306.538L526.343 306.093C526.728 304.855 528.605 299.944 528.605 299.947C529.027 298.782 529.383 297.72 529.699 296.652L530.104 295.265C530.445 294.081 530.798 292.821 531.165 291.474L534.99 276.941C535.677 274.379 536.262 272.253 536.5 271.537L537.588 268.438L538.044 267.183C538.342 266.38 538.629 265.641 538.926 264.921C541.317 259.108 543.854 255.519 547.431 254.528C550.727 253.614 553.154 253.739 555.81 254.768C556.364 254.982 557.801 255.646 558.89 256.152C559.477 256.424 559.963 256.648 560.156 256.731C562.817 257.873 565.543 258.599 569.239 258.959L569.943 259.022C571.724 259.169 573.191 258.98 577.537 258.058L580.657 257.387C583.972 256.688 586.144 256.342 588.524 256.199C590.682 256.069 592.689 256.16 594.6 256.511C597.748 257.088 602.574 258.99 609.202 262.229C610.238 262.735 610.655 263.961 610.133 264.966C609.612 265.971 608.35 266.375 607.314 265.869L606.078 265.27C600.419 262.559 596.299 260.971 593.82 260.515C592.276 260.232 590.612 260.155 588.784 260.267C586.533 260.403 584.413 260.755 580.946 261.498L578.337 262.06C573.705 263.042 572.035 263.262 569.812 263.101L569.588 263.083C565.055 262.709 561.701 261.851 558.458 260.458L554.833 258.8C554.582 258.688 554.38 258.601 554.253 258.552C552.459 257.858 550.983 257.782 548.584 258.446C546.73 258.961 544.743 261.769 542.826 266.433C542.479 267.278 542.14 268.16 541.777 269.16L540.506 272.763C539.939 274.362 535.814 290.292 535.677 290.841L535.001 293.329C534.562 294.926 534.143 296.4 533.734 297.777C533.463 298.7 533.165 299.613 532.826 300.573L532.564 301.304C532.224 302.237 531.922 303.066 531.653 303.802C529.761 308.988 529.531 309.617 529.678 310.149C529.698 310.223 529.726 310.295 529.756 310.376C529.803 310.496 529.857 310.637 529.909 310.838L529.927 310.91C531.081 315.756 534.276 317.754 543.372 320.007L551.624 321.983C555.776 323.024 559.384 322.808 565.027 321.592L568.603 320.806C570.985 320.295 571.59 320.228 572.962 320.175C575.709 320.068 577.913 320.774 579.63 322.569C582.142 325.194 582.376 328.184 581.567 336.671L581.15 340.944L581.051 342.141C580.622 347.778 580.961 351.272 582.401 353.63L582.852 354.338C583.283 355.032 583.934 356.137 584.574 357.239L586.619 360.803L586.89 361.263C589.62 365.826 591.873 368.383 594.267 369.267L594.525 369.355C597.586 370.329 601.372 368.396 606.254 362.239L606.888 361.439C607.629 360.551 608.382 359.992 611.856 357.904L617.22 354.706L617.865 354.311C621.216 352.249 623.188 350.715 623.625 349.848C628.755 339.685 632.024 323.822 631.038 305.787C630.914 303.526 629.674 300.064 627.296 295.499L627.012 294.96L626.882 294.888C621.268 291.79 617.182 288.848 614.61 286.01L614.31 285.67C611.675 282.628 609.026 277.663 606.296 270.732C605.883 269.68 606.425 268.502 607.508 268.1C608.592 267.699 609.805 268.225 610.22 269.277C612.796 275.819 615.253 280.425 617.525 283.048C619.616 285.465 623.231 288.134 628.353 291.009L629.611 291.702L630.157 291.998L630.447 292.536C633.455 298.11 635.058 302.412 635.231 305.571C636.254 324.293 632.843 340.849 627.396 351.641C626.472 353.471 624.203 355.236 620.114 357.752L619.095 358.373L614.755 360.96C611.149 363.122 610.425 363.644 609.934 364.276C603.933 371.998 598.433 374.887 593.216 373.229C589.306 371.984 586.412 368.681 582.947 362.784ZM646.44 240.552C645.386 240.08 644.139 240.526 643.653 241.548C642.604 243.755 640.964 245.141 638.617 245.813C636.935 246.296 635.051 246.574 632.744 246.721C631.939 246.771 631.248 246.802 630.216 246.831L626.671 246.918C620.989 247.099 618.513 247.565 616.033 249.299C612.742 251.599 611.36 258.953 612.515 263.188L612.577 263.42C612.619 263.579 612.661 263.75 612.704 263.936L612.845 264.55C612.854 264.591 612.886 264.738 612.931 264.942C613.029 265.393 613.187 266.122 613.292 266.591L613.489 267.447C613.666 268.186 613.842 268.846 614.037 269.489C614.815 272.058 615.845 274.139 617.361 275.853C617.57 276.09 618.155 277.118 618.798 278.293L621.003 282.382C622.786 285.431 624.639 287.647 626.983 289.129C627.971 289.754 628.875 290.013 630.57 290.309L631.323 290.442C632.699 290.692 633.35 290.85 634.169 291.16L634.804 291.411C635.444 291.649 636.197 291.823 637.287 292.008L638.066 292.133C638.07 292.133 639.916 292.404 640.96 292.566L642.09 292.753C643.169 292.945 644.125 293.147 645.035 293.386C645.924 293.62 646.747 293.882 647.511 294.181L647.997 294.366C648.771 294.648 649.417 294.825 650.557 295.086L651.613 295.322C652.096 295.432 652.441 295.519 652.749 295.613L653.108 295.73C654.462 296.201 655.607 297.025 657.044 298.751C658.947 301.038 658.947 302.11 657.484 303.092C656.529 303.732 656.291 305.002 656.951 305.927C657.61 306.854 658.919 307.084 659.872 306.445C663.604 303.939 663.604 300.148 660.311 296.19C658.406 293.903 656.634 292.627 654.526 291.893C654.105 291.747 653.717 291.633 653.236 291.512L652.605 291.362L651.294 291.066C650.477 290.876 649.998 290.741 649.457 290.544L648.519 290.19C647.76 289.915 646.965 289.671 646.132 289.452C644.893 289.127 643.61 288.867 642.13 288.622L638.105 288.008C637.149 287.848 636.564 287.712 636.229 287.575C634.926 287.041 634.13 286.817 632.495 286.51L631.036 286.249C630.065 286.069 629.62 285.932 629.275 285.715C627.603 284.657 618.638 270.229 618.065 268.339C617.852 267.636 617.66 266.89 617.455 265.994L616.87 263.334C616.818 263.108 616.767 262.9 616.72 262.704L616.574 262.146C615.817 259.368 616.875 253.732 618.486 252.606C620.111 251.469 622.222 251.119 627.405 250.975L630.364 250.904C631.432 250.874 632.159 250.841 633.018 250.787L633.783 250.733C636.043 250.556 637.987 250.244 639.807 249.723C643.32 248.717 645.912 246.524 647.466 243.255C647.952 242.234 647.493 241.023 646.44 240.552Z" fill="#00160A"/>
<path fill-rule="evenodd" clip-rule="evenodd" d="M155.929 452.417C156.7 450.949 157.359 449.668 158.277 448.597C159.207 447.513 160.381 446.623 161.488 445.694C161.597 445.602 162.208 445.833 162.203 445.894C162.187 446.217 162.149 446.64 161.933 446.839C160.289 448.357 160.152 450.374 159.648 452.36C159.096 454.537 159.656 456.24 160.678 458.055C161.358 459.264 161.855 460.593 162.282 461.915C163.179 464.7 164.065 467.494 164.783 470.326C165.267 472.236 165.713 474.214 165.732 476.164C165.826 486.002 165.771 495.839 165.777 505.677C165.78 510.702 165.706 515.73 165.857 520.753C165.907 522.391 166.823 524.008 166.851 525.642C166.874 526.964 166.191 528.306 165.742 529.613C165.678 529.801 164.983 530.017 164.884 529.921C164.171 529.241 162.979 528.491 162.968 527.748C162.875 521.969 163.104 516.185 163.045 510.406C163.018 507.798 162.399 505.198 162.332 502.589C162.175 496.508 162.88 490.319 161.914 484.375C161.161 479.731 161.344 475.31 161.418 470.744C161.435 469.718 158.489 468.44 156.729 467.649C154.445 466.621 152.993 467.996 151.911 469.839C151.813 470.006 151.403 470.088 151.403 470.21C151.35 480.951 151.279 491.691 151.322 502.432C151.335 505.54 151.703 508.646 151.862 511.755C151.921 512.919 151.794 513.525 153.636 513.252C156.752 512.792 160.842 517.26 159.94 519.811C159.246 521.774 157.988 523.551 157.29 525.514C155.717 529.946 152.277 534.231 153.794 539.045C154.946 542.701 157.44 546.118 159.986 549.126C161.001 550.322 163.78 550.07 165.718 550.598C166.373 550.778 167.137 551.222 167.434 551.763C167.627 552.116 167.209 553.038 166.786 553.353C166.533 553.544 165.746 553.049 165.195 552.875C164.29 552.589 163.4 552.167 162.474 552.06C158.108 551.571 157.866 551.313 155.882 546.596C155.173 544.905 153.84 543.465 153.084 541.786C152.372 540.201 151.969 538.471 151.573 536.774C151.192 535.137 150.684 533.44 150.796 531.806C150.926 529.881 151.504 527.939 152.183 526.108C152.788 524.474 153.829 522.994 154.583 521.405C154.672 521.22 154.222 520.69 153.91 520.474C153.739 520.357 153.275 520.482 153.041 520.637C150.782 522.133 149.707 524.546 148.276 526.66C147.806 527.355 147.952 528.445 147.82 529.354C147.624 530.714 147.247 532.077 147.28 533.432C147.34 535.938 147.05 538.666 147.961 540.894C149.858 545.528 151.693 550.419 155.56 553.864C156.983 555.136 159.345 555.742 161.718 556.051C164.842 556.456 167.804 555.579 170.866 555.917C172.267 556.074 173.789 554.887 175.254 554.894C177.042 554.899 178.44 553.948 180.021 553.701C181.826 553.415 183.318 552.662 184.892 551.936C187.461 550.756 190.248 549.912 192.593 548.411C194.678 547.073 196.27 545.02 198.112 543.318C200.956 540.688 203.355 537.783 205.264 534.399C206.106 532.909 207.44 531.777 206.89 529.89C206.804 529.597 206.589 529.127 206.407 529.116C206.001 529.089 205.446 529.173 205.182 529.432C199.156 535.334 193.28 541.386 187.082 547.112C185.411 548.653 182.798 549.255 180.586 550.227C179.354 550.767 178.036 551.116 176.798 551.644C174.103 552.791 171.965 551.195 169.667 550.362C169.775 550.132 169.838 549.744 169.996 549.699C173.739 548.732 177.532 547.927 181.224 546.809C182.932 546.292 184.528 545.291 186.025 544.297C187.475 543.334 188.676 542.026 190.087 541C195.367 537.168 199.688 532.658 201.755 526.392C202.315 524.697 206.075 523.621 208.237 524.247C209.539 524.625 211.029 524.592 212.174 525.203C212.907 525.595 213.695 526.92 213.551 527.661C212.781 531.611 210.228 534.542 207.379 537.354C205.488 539.222 204.318 541.805 202.352 543.571C199.019 546.562 195.539 549.518 191.696 551.824C187.813 554.156 183.5 555.894 179.211 557.474C176.139 558.604 172.832 559.441 169.569 559.706C163.999 560.161 158.518 559.728 153.578 556.519C150.485 554.505 148.398 551.716 146.787 548.703C145.884 547.017 146.752 544.475 145.961 542.675C144.392 539.104 144.102 535.441 144.433 531.76C144.658 529.249 146.261 526.81 146.27 524.337C146.282 521.557 148.387 520.193 149.305 518.095C149.491 517.672 148.996 517.013 148.994 516.461C148.968 510.185 148.98 503.907 148.976 497.629C148.973 494.469 149.176 491.288 148.86 488.156C148.677 486.337 147.515 484.629 147.053 482.809C146.818 481.883 147.217 480.82 147.229 479.818C147.26 476.974 146.975 474.102 147.306 471.296C147.725 467.766 148.738 464.306 149.288 460.783C149.595 458.816 149.484 456.786 149.556 454.785C149.696 450.848 150.526 446.962 153.353 444.13C155.558 441.921 158.195 439.832 161.855 439.824C162.754 439.821 163.981 438.244 164.479 438.491C165.615 439.052 166.718 440.176 167.164 441.317C167.363 441.824 166.091 443.141 165.221 443.713C163.676 444.732 161.872 444.696 159.985 444.618C156.885 444.486 154.059 448.423 152.862 451.879C151.882 454.715 153.381 457.24 152.713 459.941C152.516 460.744 154.148 461.995 155.005 462.991C155.093 463.095 155.887 462.856 155.888 462.771C155.908 461.067 156.028 459.338 155.776 457.664C155.537 456.081 154.438 454.491 156.477 453.291C156.294 453.094 156.112 452.896 155.929 452.417Z" fill="#FF3A46"/>
<path fill-rule="evenodd" clip-rule="evenodd" d="M270.618 581.158C270.074 584.03 269.494 586.617 269.017 589.214C268.937 589.646 269.424 590.148 269.441 590.624C269.586 594.712 268.818 598.754 268.682 602.842C268.618 604.803 268.797 606.951 268.241 608.879C267.554 611.269 268.546 614.406 265.396 615.81C264.181 616.351 262.395 617.374 261.685 616.935C260.312 616.086 258.028 615.62 258.389 612.999C258.705 610.695 258.042 608.232 258.547 606C259.41 602.183 258.494 598.333 259.171 594.623C259.583 592.373 259.138 590.13 259.675 588.005C260.543 584.576 260.411 581.085 260.879 577.649C261.324 574.383 261.591 571.105 262.031 567.857C262.486 564.495 262.75 561.121 263.219 557.787C263.639 554.803 263.569 551.643 264.454 548.882C265.24 546.434 263.398 543.614 265.858 541.501C266.195 541.211 265.313 539.833 265.447 539.032C266.566 532.365 265.691 525.658 266.042 518.982C266.066 518.511 266.833 517.834 267.385 517.676C269.116 517.178 270.899 516.801 272.688 516.566C273.104 516.51 274.038 517.207 274.032 517.545C273.926 523.275 273.584 529.004 273.556 534.733C273.536 538.87 274.005 543.007 274.049 547.145C274.07 549.158 273.566 551.175 273.391 553.2C273.209 555.303 273.886 557.304 272.61 559.547C271.648 561.234 272.492 563.842 272.331 566.023C272.03 570.105 271.776 574.209 271.042 578.222C270.888 579.072 270.561 579.949 270.618 581.158ZM262.509 610.672C263.46 612.066 263.409 612.027 264.287 610.964C265.32 609.712 264.536 608.25 264.874 606.978C265.781 603.56 265.555 600.058 265.984 596.612C266.328 593.846 266.818 591.086 266.972 588.314C267.171 584.733 266.79 581.101 267.238 577.559C267.623 574.518 267.501 571.465 268.611 568.373C269.736 565.236 269.253 561.555 269.453 558.108C269.501 557.264 269.133 556.225 269.519 555.612C270.836 553.526 269.658 551.351 269.983 549.248C270.025 548.967 269.29 548.579 268.913 548.236C268.698 548.635 268.349 549.011 268.286 549.434C267.872 552.182 267.403 554.926 267.172 557.692C266.864 561.363 266.756 565.057 266.566 568.739C266.55 569.02 266.685 569.391 266.545 569.571C264.976 571.612 266.192 574.046 265.481 576.334C264.581 579.224 264.984 582.495 264.827 585.605C264.822 585.7 264.843 585.796 264.823 585.886C264.35 588.061 263.752 590.225 263.432 592.425C263.173 594.189 264.238 595.803 262.764 597.855C261.646 599.417 262.626 602.33 262.47 604.623C262.376 606.013 261.807 607.367 261.644 608.761C261.597 609.171 262.203 609.66 262.509 610.672ZM270.039 533.653C270.102 532.094 270.167 530.534 270.221 528.976C270.227 528.754 270.173 528.341 270.144 528.341C269.777 528.337 269.108 528.34 269.088 528.443C268.796 530.001 268.525 531.572 268.425 533.149C268.409 533.383 269.286 533.671 270.039 533.653Z" fill="#00160A"/>
<path fill-rule="evenodd" clip-rule="evenodd" d="M156.944 541.383C156.816 540.306 156.832 539.369 156.848 538.431C157.639 538.653 158.522 538.722 159.205 539.119C162.794 541.205 166.317 543.402 169.907 545.49C170.533 545.854 171.36 545.94 172.11 546.043C172.687 546.123 173.289 546.029 173.88 546.013C173.314 546.485 172.638 547.444 172.2 547.349C169.465 546.762 166.208 548.922 163.93 545.934C163.886 545.877 163.634 545.894 163.538 545.959C162.515 546.653 161.369 548.017 160.224 546.698C158.917 545.187 158.112 543.266 156.944 541.383Z" fill="#00160A"/>
<path opacity="0.1" fill-rule="evenodd" clip-rule="evenodd" d="M-13.8057 77.6289C38.777 5.85361 107.267 -16.1494 191.664 11.6199C318.26 53.2739 300.644 104.633 388.635 104.633C476.627 104.633 511.705 36.9593 626.302 60.9625C740.9 84.9658 806.39 272.491 706.405 365.504C606.42 458.516 679.295 527.526 717.903 598.035C756.512 668.545 668.432 828.066 516.818 746.555C415.743 692.215 336.459 714.884 278.967 814.565C173.439 914.354 61.0167 863.069 -58.2992 660.708C-177.615 458.347 -162.784 263.987 -13.8057 77.6289Z" fill="url(#paint0_linear_351_19145)"/>
<defs>
<linearGradient id="paint0_linear_351_19145" x1="101.872" y1="39.3243" x2="384.432" y2="539.528" gradientUnits="userSpaceOnUse">
<stop stop-color="#A988E9"/>
<stop offset="1" stop-color="#705A9A"/>
</linearGradient>
</defs>
</svg>
